# xmcd CD database file
# Copyright (C) 1993-1998 Ti Kan
#
# Track frame offsets:
#	150
#	18163
#	34828
#	46520
#	61578
#	77723
#	100895
#	119070
#	127335
#	145123
#	157523
#	169793
#	186385
#	201510
#	214685
#	226675
#
# Disc length: 3195 seconds
#
# Revision: 1
# Processed by: cddbd v1.4b41PL1 Copyright (c) Steve Scherf et al.
# Submitted via: CDValet v3.31 - Copyright (c) 1997 Greg Leichner
#
DISCID=d10c7910
DTITLE=Ben Zuur and Henk Puister - Swaarven deur Grunnen
DYEAR=1900
DGENRE=
TTITLE0=De Keunenk van stad
TTITLE1=Delfsiel Delfsiel
TTITLE2=97 punt vief
TTITLE3=As t störmt
TTITLE4=De wonderlieke raais
TTITLE5=Leg dien heufd mor op mien scholder
TTITLE6=t Regent bie Oetwier
TTITLE7=Mulderswicht
TTITLE8=Ol Kneles
TTITLE9=N-41 blues
TTITLE10=Dronken Paiter
TTITLE11=Mien Damster toorn
TTITLE12=Boontjesoep
TTITLE13=Oetzied
TTITLE14=Hopeloos verlaifd
TTITLE15=t Is winter
EXTD=
EXTT0=
EXTT1=
EXTT2=
EXTT3=
EXTT4=
EXTT5=
EXTT6=
EXTT7=
EXTT8=
EXTT9=
EXTT10=
EXTT11=
EXTT12=
EXTT13=
EXTT14=
EXTT15=
PLAYORDER=
